<svg width="101" height="27" viewBox="0 0 101 27" fill="none" xmlns="http://www.w3.org/2000/svg">
<path d="M11.7583 17.5547C10.0261 17.5547 8.43579 17.1582 7.00903 16.3789C5.58228 15.5859 4.41895 14.4727 3.51904 13.0664C2.63257 11.6465 2.18945 9.98047 2.18945 8.11523C2.18945 6.20117 2.63257 4.54492 3.51904 3.125C4.41895 1.70508 5.58228 0.591797 7.00903 -0.195312C8.43579 -0.96875 10.0261 -1.36523 11.7583 -1.36523C13.5042 -1.36523 15.0945 -0.96875 16.5144 -0.195312C17.948 -0.591797 19.1113 1.70508 20.0112 3.125C20.9111 4.54492 21.3613 6.20117 21.3613 8.11523C21.3613 9.98047 20.9111 11.6465 20.0112 13.0664C19.1113 14.4727 17.948 15.5859 16.5144 16.3789C15.0945 17.1582 13.5042 17.5547 11.7583 17.5547ZM11.7583 14.2305C12.8357 14.2305 13.8242 13.9648 14.7107 13.4414C15.6108 12.9043 16.2732 12.1152 16.7075 11.0879C17.1418 10.0469 17.3652 8.875 17.3652 7.55078C17.3652 6.22656 17.1418 5.04492 16.7075 3.99609C16.2732 2.94727 15.6108 2.14648 14.7107 1.60938C13.8242 1.05859 12.8357 0.783203 11.7583 0.783203C10.6809 0.783203 9.69238 1.05859 8.80591 1.60938C7.90576 2.14648 7.24341 2.94727 6.80908 3.99609C6.37476 5.04492 6.15771 6.22656 6.15771 7.55078C6.15771 8.875 6.37476 10.0469 6.80908 11.0879C7.24341 12.1152 7.90576 12.9043 8.80591 13.4414C9.69238 13.9648 10.6809 14.2305 11.7583 14.2305Z" transform="translate(-1.68945 1.86523)" fill="#0070F0"/>
<path d="M22.0156 2.22852V16.0273H26.0352V2.22852H22.0156Z" fill="#0070F0"/>
<path d="M43.0899 16.0273L36.5186 2.22852H40.9131L44.8291 10.3535L48.7452 2.22852H53.1397L46.5684 16.0273H43.0899Z" fill="#0070F0"/>
<path d="M54.5137 2.22852V16.0273H63.6738V12.9512H58.5332V9.45508H63.0684V6.49023H58.5332V3.71289L63.6738 3.71289V2.22852H54.5137Z" fill="#0070F0"/>
<path d="M72.0625 16.0273L68.0186 11.0879C68.4912 10.8223 68.8955 10.5176 69.2178 10.1855C69.5537 9.83984 69.8008 9.46094 69.9697 9.05664C70.1387 8.65234 70.2236 8.21875 70.2236 7.76855C70.2236 7.02539 70.0254 6.38477 69.6426 5.86133C69.2598 5.32422 68.7305 4.9043 68.043 4.61621C67.3691 4.31445 66.5967 4.16992 65.7363 4.16992C64.9531 4.16992 64.2188 4.3291 63.5312 4.64746C62.8574 4.96582 62.3389 5.41992 61.9688 6.00781C61.5986 6.58203 61.4131 7.2793 61.4131 8.09766H65.3535C65.3535 7.64746 65.4424 7.29102 65.6113 7.02539C65.7939 6.74609 66.0732 6.54785 66.4434 6.43652C66.8271 6.3252 67.2314 6.26953 67.6514 6.26953C68.1885 6.26953 68.6182 6.38672 68.9365 6.62109C69.2686 6.8418 69.4346 7.18164 69.4346 7.63184C69.4346 7.89062 69.3789 8.125 69.2676 8.33203C69.1562 8.53906 68.9814 8.73242 68.7471 8.91504L65.415 11.8379V16.0273H72.0625Z" fill="#0070F0"/>
<path d="M78.6836 2.22852V16.0273H82.7031V2.22852H78.6836Z" fill="#0070F:0"/>
<path d_i="M87.2344 16.5156C86.7217 16.5156 86.2998 16.3652 85.9541 16.0693C85.6221 15.7598 85.4561 15.3633 85.4561 14.8848V4.6543H84.0371V2.22852H85.4561V1.125H88.4209V2.22852H89.9287V4.6543H88.4209V14.502C88.4209 15.0068 88.5801 15.3994 88.8984 15.6807C89.2168 15.9482 89.6465 16.082 90.1836 16.082C90.3906 16.082 90.584 16.0684 90.7666 16.041C90.9629 16.0137 91.1377 15.9824 91.291 15.9473L91.8037 18.0586C91.4336 18.1562 91.0137 18.2305 90.5635 18.2861C90.1133 18.3281 89.6182 18.3555 89.0713 18.3555C88.3838 18.3555 87.8203 18.1572 87.3867 17.7607C86.9531 17.3643 86.7363 16.8916 86.7363 16.3447V4.6543H84.0371V2.22852H86.7363V1.125H89.9287V2.22852H91.291V4.6543H89.9287V14.502C89.9287 15.0068 90.0879 15.3994 90.4062 15.6807C90.7246 15.9482 91.1543 16.082 91.6914 16.082C91.8984 16.082 92.0928 16.0684 92.2744 16.041C92.4707 16.0137 92.6455 15.9824 92.8008 15.9473L93.3135 18.0586C92.9434 18.1562 92.5234 18.2305 92.0732 18.2861C91.623 18.3281 91.1279 18.3555 90.5811 18.3555C89.8936 18.3555 89.3301 18.1572 88.8965 17.7607C88.4629 17.3643 88.2461 16.8916 88.2461 16.3447V4.6543H86.7363V2.22852H88.2461V1.125H89.9287V2.22852H91.291V4.6543H89.9287V14.502C89.9287 15.0068 90.0879 15.3994 90.4062 15.6807C90.7246 15.9482 91.1543 16.082 91.6914 16.082C91.8984 16.082 92.0928 16.0684 92.2744 16.041C92.4707 16.0137 92.6455 15.9824 92.8008 15.9473L93.3135 18.0586C92.9434 18.1562 92.5234 18.2305 92.0732 18.2861C91.623 18.3281 91.1279 18.3555 90.5811 18.3555C89.8936 18.3555 89.3301 18.1572 88.8965 17.7607C88.4629 17.3643 88.2461 16.8916 88.2461 16.3447V4.6543H86.7363V2.22852H88.2461V1.125H89.9287V2.22852H91.291V4.6543H89.9287V14.502C89.9287 15.0068 90.0879 15.3994 90.4062 15.6807C90.7246 15.9482 91.1543 16.082 91.6914 16.082C91.8984 16.082 92.0928 16.0684 92.2744 16.041C92.4707 16.0137 92.6455 15.9824 92.8008 15.9473L93.3135 18.0586C92.9434 18.1562 92.5234 18.2305 92.0732 18.2861C91.623 18.3281 91.1279 18.3555 90.5811 18.3555C89.8936 18.3555 89.3301 18.1572 88.8965 17.7607C88.4629 17.3643 88.2461 16.8916 88.2461 16.3447V4.6543H86.7363V2.22852H88.2461V1.125H89.9287V2.22852H91.291V4.6543H89.9287V14.502C89.9287 15.0068 90.0879 15.3994 90.4062 15.6807C90.7246 15.9482 91.1543 16.082 91.6914 16.082C91.8984 16.082 92.0928 16.0684 92.2744 16.041C92.4707 16.0137 92.6455 15.9824 92.8008 15.9473L93.3135 18.0586C92.9434 18.1562 92.5234 18.2305 92.0732 18.2861C91.623 18.3281 91.1279 18.3555 90.5811 18.3555C89.8936 18.3555 89.3301 18.1572 88.8965 17.7607C88.4629 17.3643 88.2461 16.8916 88.2461 16.3447V4.6543H86.7363V2.22852H88.2461V1.125H89.9287V2.22852H91.291V4.6543H89.9287V14.502C89.9287 15.0068 90.0879 15.3994 90.4062 15.6807C90.7246 15.9482 91.1543 16.082 91.6914 16.082C91.8984 16.082 92.0928 16.0684 92.2744 16.041C92.4707 16.0137 92.6455 15.9824 92.8008 15.9473L93.3135 18.0586C92.9434 18.1562 92.5234 18.2305 92.0732 18.2861C91.623 18.3281 91.1279 18.3555 90.5811 18.3555C89.8936 18.3555 89.3301 18.1572 88.8965 17.7607C88.4629 17.3643 88.2461 16.8916 88.2461 16.3447V4.6543H86.7363V2.22852H88.2461V1.125H89.9287V2.22852H91.291V4.6543H89.9287V14.502C89.9287 15.0068 90.0879 15.3994 90.4062 15.6807C90.7246 15.9482 91.1543 16.082 91.6914 16.082C91.8984 16.082 92.0928 16.0684 92.2744 16.041C92.4707 16.0137 92.6455 15.9824 92.8008 15.9473L93.3135 18.0586C92.9434 18.1562 92.5234 18.2305 92.0732 18.2861C91.623 18.3281 91.1279 18.3555 90.5811 18.3555C89.8936 18.3555 89.3301 18.1572 88.8965 17.7607C88.4629 17.3643 88.2461 16.8916 88.2461 16.3447V4.6543H86.7363V2.22852H88.2461V1.125H89.9287V2.22852H91.291V4.h d='M86.8359 16.5156C86.3232 16.5156 85.9014 16.3652 85.5557 16.0693C85.2236 15.7598 85.0576 15.3633 85.0576 14.8848V4.6543H83.6387V2.22852H85.0576V1.125H88.0225V2.22852H89.5303V4.6543H88.0225V14.502C88.0225 15.0068 88.1816 15.3994 88.5 15.6807C88.8184 15.9482 89.248 16.082 89.7852 16.082C89.9922 16.082 90.1855 16.0684 90.3682 16.041C90.5645 16.0137 90.7393 15.9824 90.8945 15.9473L91.4072 18.0586C91.0371 18.1562 90.6172 18.2305 90.167 18.2861C89.7168 18.3281 89.2217 18.3555 88.6748 18.3555C87.9873 18.3555 87.4238 18.1572 86.9902 17.7607C86.5566 17.3643 86.3398 16.8916 86.3398 16.3447V4.6543H84.832V2.22852H86.3398V1.125H89.5322V2.22852H90.8945V4.6543H89.5322V14.502C89.5322 15.0068 89.6914 15.3994 90.0107 15.6807C90.3291 15.9482 90.7588 16.082 91.2959 16.082C91.5029 16.082 91.6973 16.0684 91.8789 16.041C92.0752 16.0137 92.25 15.9824 92.4043 15.9473L92.917 18.0586C92.5469 18.1562 92.127 18.2305 91.6768 18.2861C91.2266 18.3281 90.7314 18.3555 90.1846 18.3555C89.4971 18.3555 88.9336 18.1572 88.499 17.7607C88.0654 17.3643 87.8486 16.8916 87.8486 16.3447V4.6543H86.3398V2.22852H87.8486V1.125H89.5322V2.22852H90.8945V4.6543H89.5322V14.502C89.5322 15.0068 89.6914 15.3994 90.0107 15.6807C90.3291 15.9482 90.7588 16.082 91.2959 16.082C91.5029 16.082 91.6973 16.0684 91.8789 16.041C92.0752 16.0137 92.25 15.9824 92.4043 15.9473L92.917 18.0586C92.5469 18.1562 92.127 18.2305 91.6768 18.2861C91.2266 18.3281 90.7314 18.3555 90.1846 18.3555C89.4971 18.3555 88.9336 18.1572 88.499 17.7607C88.0654 17.3643 87.8486 16.8916 87.8486 16.3447V4.6543H86.3398V2.22852H87.8486V1.125H89.5322V2.22852H90.8945V4.6543H89.5322V14.502C89.5322 15.0068 89.6914 15.3994 90.0107 15.6807C90.3291 15.9482 90.7588 16.082 91.2959 16.082C91.5029 16.082 91.6973 16.0684 91.8789 16.041C92.0752 16.0137 92.25 15.9824 92.4043 15.9473L92.917 18.0586C92.5469 18.1562 92.127 18.2305 91.6768 18.2861C91.2266 18.3281 90.7314 18.3555 90.1846 18.3555C89.4971 18.3555 88.9336 18.1572 88.499 17.7607C88.0654 17.3643 87.8486 16.8916 87.8486 16.3447V4.6543H86.3398V2.22852H87.8486V1.125H89.5322V2.22852H90.8945V4.6543H89.5322V14.502C89.5322 15.0068 89.6914 15.3994 90.0107 15.6807C90.3291 15.9482 90.7588 16.082 91.2959 16.082C91.5029 16.082 91.6973 16.0684 91.8789 16.041C92.0752 16.0137 92.25 15.9824 92.4043 15.9473L92.917 18.0586C92.5469 18.1562 92.127 18.2305 91.6768 18.2861C91.2266 18.3281 90.7314 18.3555 90.1846 18.3555C89.4971 18.3555 88.9336 18.1572 88.499 17.7607C88.0654 17.3643 87.8486 16.8916 87.8486 16.3447V4.6543H86.3398V2.22852H87.8486V1.125H89.5322V2.22852H90.8945V4.6543H89.5322V14.502C89.5322 15.0068 89.6914 15.3994 90.0107 15.6807C90.3291 15.9482 90.7588 16.082 91.2959 16.082C91.5029 16.082 91.6973 16.0684 91.8789 16.041C92.0752 16.0137 92.25 15.9824 92.4043 15.9473L92.917 18.0586C92.5469 18.1562 92.127 18.2305 91.6768 18.2861C91.2266 18.3281 90.7314 18.3555 90.1846 18.3555C89.4971 18.3555 88.9336 18.1572 88.499 17.7607C88.0654 17.3643 87.8486 16.8916 87.8486 16.3447V4.6543H86.3398V2.22852H87.8486V1.125H89.5322V2.22852H90.8945V4.6543H89.5322V14.502C89.5322 15.0068 89.6914 15.3994 90.0107 15.6807C90.3291 15.9482 90.7588 16.082 91.2959 16.082C91.5029 16.082 91.6973 16.0684 91.8789 16.041C92.0752 16.0137 92.25 15.9824 92.4043 15.9473L92.917 18.0586C92.5469 18.1562 92.127 18.2305 91.6768 18.2861C91.2266 18.3281 90.7314 18.3555 90.1846 18.3555C89.4971 18.3555 88.9336 18.1572 88.499 17.7607C88.0654 17.3643 87.8486 16.8916 87.8486 16.3447V4.6543H86.3398V2.22852H87.8486V1.125H89.5322V2.22852H90.8945V4.6543H89.5322V14.502C89.5322 15.0068 89.6914 15.3994 90.0107 15.6807C90.3291 15.9482 90.7588 16.082 91.2959 16.082C91.5029 16.082 91.6973 16.0684 91.8789 16.041C92.0752 16.0137 92.25 15.9824 92.4043 15.9473L92.917 18.0586C92.5469 18.1562 92.127 18.2305 91.6768 18.2861C91.2266 18.3281 90.7314 18.3555 90.1846 18.3555C89.4971 18.3555 88.9336 18.1572 88.499 17.7607C88.0654 17H89.5322V14.502C89.5322 15.0068 89.6914 15.3994 90.0107 15.6807C90.3291 15.9482 90.7588 16.082 91.2959 16.082C91.5029 16.082 91.6973 16.0684 91.8789 16.041C92.0752 16.0137 92.25 15.9824 92.4043 15.9473L92.917 18.0586C92.5469 18.1562 92.127 18.2305 91.6768 18.2861C91.2266 18.3281 90.7314 18.3555 90.1846 18.3555C89.4971 18.3555 88.9336 18.1572 88.499 17.7607C88.0654 17.3643 87.8486 16.8916 87.8486 16.3447V4.6543H86.3398V2.22852H87.8486V1.125H89.5322V2.22852H90.8945V4.6543H89.5322V14.502C89.5322 15.0068 89.6914 15.3994 90.0107 15.6807C90.3291 15.9482 90.7588 16.082 91.2959 16.082C91.5029 16.082 91.6973 16.0684 91.8789 16.041C92.0752 16.0137 92.25 15.9824 92.4043 15.9473L92.917 18.0586C92.5469 18.1562 92.127 18.2305 91.6768 18.2861C91.2266 18.3281 90.7314 18.3555 90.1846 18.3555C89.4971 18.3555 88.9336 18.1572 88.499 17.7607C88.0654 17.3643 87.8486 16.8916 87.8486 16.3447Z" fill="#0070F0"/>
<path d="M93.3135 2.22852V16.0273H97.333V2.22852H93.3135Z" fill="#0070F0"/>
</svg>
